<svg fill="none" height="100" viewBox="0 0 100 100" width="100" xmlns="http://www.w3.org/2000/svg"><circle cx="50" cy="50" fill="#e8f7f0" r="50"/><path d="m50 20.4688c-3.374 0-6.0938 2.7197-6.0938 6.0937s2.7198 6.0937 6.0938 6.0937 6.0938-2.7197 6.0938-6.0937-2.7198-6.0937-6.0938-6.0937zm0 2.8124c1.8262 0 3.2812 1.4551 3.2812 3.2813s-1.455 3.2813-3.2812 3.2813-3.2812-1.4551-3.2812-3.2813 1.455-3.2813 3.2812-3.2813zm-9.2334 6.8116c-.2734-.0244-.5518.0342-.7959.1709l-2.4414 1.4062c-.6543.376-.8887 1.2696-.5127 1.9239.2344.4687.7471.7031 1.2158.7031.2344 0 .4688-.0489.7031-.1856l2.4415-1.4062c.6542-.376.8886-1.2696.5126-1.9239-.2343-.4101-.6689-.6542-1.123-.6884zm18.4668 0c-.4541.0342-.8887.2783-1.123.6884-.376.6543-.1416 1.5479.5126 1.9239l2.4415 1.4062c.2343.1367.4687.1856.7031.1856.4687 0 .9375-.2344 1.2158-.7031.376-.6543.1416-1.5479-.5127-1.9239l-2.4414-1.4062c-.2441-.1367-.5225-.1953-.7959-.1709zm-30.3272 2.0947c-3.374 0-6.0937 2.7197-6.0937 6.0937 0 3.3741 2.7197 6.0938 6.0937 6.0938 3.3741 0 6.0938-2.7197 6.0938-6.0938 0-3.374-2.7197-6.0937-6.0938-6.0937zm42.1876 0c-3.3741 0-6.0938 2.7197-6.0938 6.0937 0 3.3741 2.7197 6.0938 6.0938 6.0938 3.374 0 6.0937-2.7197 6.0937-6.0938 0-3.374-2.7197-6.0937-6.0937-6.0937zm-42.1876 2.8125c1.8262 0 3.2813 1.4551 3.2813 3.2812 0 1.8262-1.4551 3.2813-3.2813 3.2813-1.8261 0-3.2812-1.4551-3.2812-3.2813 0-1.8261 1.4551-3.2812 3.2812-3.2812zm42.1876 0c1.8261 0 3.2812 1.4551 3.2812 3.2812 0 1.8262-1.4551 3.2813-3.2812 3.2813-1.8262 0-3.2813-1.4551-3.2813-3.2813 0-1.8261 1.4551-3.2812 3.2813-3.2812zm-21.0938 2.3438c-7.2168 0-13.125 5.9082-13.125 13.125 0 7.2167 5.9082 13.125 13.125 13.125s13.125-5.9083 13.125-13.125c0-7.2168-5.9082-13.125-13.125-13.125zm0 2.8124c1.4062 0 2.7197.2833 3.9355.7959v.752c0 .5615-.3271 1.123-.8886 1.3574-1.1719.5176-2.3438.2344-2.8614 1.5967-.371.9815.7032 3.75 1.9727 3.75 1.6406 0 2.4365-3.3301 2.9053-3.3301.3271 0 .7959.9864 1.3574 1.7334.376.5176.9863.7959 1.6406.7959h1.0791l.7032.1905c.3271.7959.4687 1.7333.4687 2.6709 0 5.6738-4.6387 10.3124-10.3125 10.3124-1.7334 0-3.374-.4199-4.8291-1.1718h.0488c.376-.2344.7959-.4688 1.2158-.752.3321-.2344.5665-.5127.752-.7959.2344-.376.4687-.7959.6104-1.2646.8447-3.1885-1.9239-3.3301-2.0167-4.0332-.0927-.7959.9376-1.3575 1.5479-2.0117.6104-.6592.7959-1.5967.4688-2.1582-1.0303-1.8262-3.4717-.8887-3.6573 1.0791-.1416 1.1718-.8447 2.3876-1.4551 2.9541-.6054.6054-1.7773.2783-2.1093-.6104-.3711-.9863.8935-1.3623.7031-2.5781-.0439-.3272-.4199-.5176-.8398-.5615l-.7032.0439c.8399-4.9658 5.1075-8.7647 10.2637-8.7647zm-21.0938 7.0313c-.7958 0-1.4062.6104-1.4062 1.4063v2.8124c0 .7959.6104 1.4063 1.4062 1.4063.7959 0 1.4063-.6104 1.4063-1.4063v-2.8124c0-.7959-.6104-1.4063-1.4063-1.4063zm42.1876 0c-.7959 0-1.4063.6104-1.4063 1.4063v2.8124c0 .7959.6104 1.4063 1.4063 1.4063.7958 0 1.4062-.6104 1.4062-1.4063v-2.8124c0-.7959-.6104-1.4063-1.4062-1.4063zm-13.545 3.9014c-.5615.0293-1.3379.2978-2.3926 1.0205-.7958.5615-2.2509-.6104-2.8613.2832-.6054.8398 2.5342 3.374 3.5645 2.8564 1.7822-.8447 2.9052-2.5781 2.9052-3.1885.0293-.3808-.288-1.0156-1.2158-.9716zm-28.6426 4.5361c-3.374 0-6.0937 2.7197-6.0937 6.0938 0 3.374 2.7197 6.0937 6.0937 6.0937 3.3741 0 6.0938-2.7197 6.0938-6.0937 0-3.3741-2.7197-6.0938-6.0938-6.0938zm42.1876 0c-3.3741 0-6.0938 2.7197-6.0938 6.0938 0 3.374 2.7197 6.0937 6.0938 6.0937 3.374 0 6.0937-2.7197 6.0937-6.0937 0-3.3741-2.7197-6.0938-6.0937-6.0938zm-42.1876 2.8125c1.8262 0 3.2813 1.4551 3.2813 3.2813 0 1.8261-1.4551 3.2812-3.2813 3.2812-1.8261 0-3.2812-1.4551-3.2812-3.2812 0-1.8262 1.4551-3.2813 3.2812-3.2813zm42.1876 0c1.8261 0 3.2812 1.4551 3.2812 3.2813 0 1.8261-1.4551 3.2812-3.2812 3.2812-1.8262 0-3.2813-1.4551-3.2813-3.2812 0-1.8262 1.4551-3.2813 3.2813-3.2813zm-32.9542 7.2803c-.4541.0342-.8886.2783-1.123.6884-.376.6543-.1416 1.5479.5127 1.9239l2.4414 1.4062c.2344.1367.4688.1856.7031.1856.4688 0 .9375-.2344 1.2158-.7031.376-.6543.1416-1.5479-.5126-1.9239l-2.4415-1.4062c-.2441-.1367-.5224-.1953-.7959-.1709zm23.7208 0c-.2735-.0244-.5518.0342-.7959.1709l-2.4415 1.4062c-.6542.376-.8886 1.2696-.5126 1.9239.2783.4687.747.7031 1.2158.7031.2343 0 .4687-.0489.7031-.1856l2.4414-1.4062c.6543-.376.8887-1.2696.5127-1.9239-.2344-.4101-.6689-.6542-1.123-.6884zm-11.8604 1.626c-3.374 0-6.0938 2.7197-6.0938 6.0937s2.7198 6.0937 6.0938 6.0937 6.0938-2.7197 6.0938-6.0937-2.7198-6.0937-6.0938-6.0937zm0 2.8124c1.8262 0 3.2812 1.4551 3.2812 3.2813s-1.455 3.2813-3.2812 3.2813-3.2812-1.4551-3.2812-3.2813 1.455-3.2813 3.2812-3.2813z" fill="#096349"/></svg>