<svg fill="none" height="100" viewBox="0 0 100 100" width="100" xmlns="http://www.w3.org/2000/svg"><circle cx="50" cy="50" fill="#e8f7f0" r="50"/><path d="m26 24.8c-1.974 0-3.6 1.626-3.6 3.6v10.8 12 20.4c0 1.974 1.626 3.6 3.6 3.6h48c1.974 0 3.6-1.626 3.6-3.6v-38.4c0-1.974-1.626-3.6-3.6-3.6h-32.4c.1039 0-.0372.0004-.3305-.3375-.2932-.3379-.6542-.8986-1.0312-1.5s-.7722-1.2432-1.2703-1.807c-.4982-.5639-1.1855-1.1555-2.168-1.1555zm0 2.4h10.8c-.0729 0 .0734.0084.3703.3445.297.3361.6584.8944 1.0336 1.493s.7638 1.2379 1.2516 1.8c.4877.5621 1.1592 1.1625 2.1445 1.1625h32.4c.678 0 1.2.522 1.2 1.2v2.625c-.3779-.1363-.7778-.225-1.2-.225h-48c-.4222 0-.8221.0887-1.2.225v-7.425c0-.678.522-1.2 1.2-1.2zm0 10.8h48c.678 0 1.2.522 1.2 1.2v32.4c0 .678-.522 1.2-1.2 1.2h-48c-.678 0-1.2-.522-1.2-1.2v-32.4c0-.678.522-1.2 1.2-1.2zm13.2 3.6v27.6h21.6v-1.2-18.0188l-8.1609-8.3812zm2.4 2.4h8.4v8.4h8.4v14.4h-16.8zm10.8.7945 5.0695 5.2055h-5.0695z" fill="#096349"/></svg>