<svg fill="none" height="100" viewBox="0 0 100 100" width="100" xmlns="http://www.w3.org/2000/svg"><circle cx="50" cy="50" fill="#e8f7f0" r="50"/><path d="m31.25 28.6562c-3.375 0-6.0938 2.7188-6.0938 6.0938v23.4375c0 .7969.6094 1.4063 1.4063 1.4063s1.4063-.6094 1.4063-1.4063v-23.4375c0-1.8281 1.4531-3.2812 3.2812-3.2812h37.5c1.8281 0 3.2812 1.4531 3.2812 3.2812v23.4375c0 .7969.6094 1.4063 1.4063 1.4063s1.4063-.6094 1.4063-1.4063v-23.4375c0-3.375-2.7188-6.0938-6.0938-6.0938zm14.0625 9.8438c-.7969 0-1.4063.6094-1.4063 1.4062v4.6876c0 .7968.6094 1.4062 1.4063 1.4062s1.4063-.6094 1.4063-1.4062v-4.6876c0-.7968-.6094-1.4062-1.4063-1.4062zm9.375 0c-.7969 0-1.4063.6094-1.4063 1.4062v4.6876c0 .7968.6094 1.4062 1.4063 1.4062s1.4063-.6094 1.4063-1.4062v-4.6876c0-.7968-.6094-1.4062-1.4063-1.4062zm-15.0641 11.4844c-.3574 0-.709.1408-.9668.422-.5625.5625-.5625 1.4528 0 1.9684l.1401.141c3.0937 3.0938 7.1719 4.6408 11.25 4.6408s8.1562-1.547 11.25-4.6408c.5625-.5625.5625-1.4537 0-1.9693-.5625-.5625-1.4528-.5625-1.9684 0-5.1094 5.1094-13.4062 5.1094-18.5156 0l-.1877-.1401c-.2813-.2812-.6442-.422-1.0016-.422zm-17.7484 13.3594c-.7969 0-1.4062.6093-1.4062 1.4062 0 5.9531 4.8281 10.7812 10.7812 10.7812h37.5c5.9531 0 10.7812-4.8281 10.7812-10.7812 0-.7969-.6093-1.4062-1.4062-1.4062zm1.5472 2.8124h53.2032c-.7032 3.7032-3.9379 6.5626-7.8754 6.5626h-37.5c-3.9375 0-7.1715-2.8594-7.8278-6.5626z" fill="#096349"/></svg>