<svg width="126" height="12" viewBox="0 0 126 12" fill="none" xmlns="http://www.w3.org/2000/svg">
<path d="M91.9142 7.98324C91.9142 9.99086 93.5349 11.6177 95.5349 11.6177H104.253V8.69612H95.5349C95.1404 8.69612 94.8187 8.37928 94.8187 7.98172C94.8187 7.58416 95.1404 7.26733 95.5349 7.26733H104.253V4.34577H95.5349C95.1404 4.34577 94.8187 4.02894 94.8187 3.63138C94.8187 3.23382 95.1404 2.91698 95.5349 2.91698H104.253V0H95.5349C93.5349 0 91.9142 1.62681 91.9142 3.63443C91.9142 4.45088 92.1858 5.20183 92.638 5.80807C92.1858 6.41432 91.9142 7.16527 91.9142 7.98172V7.98324Z" fill="currentColor"/>
<path d="M33.7732 7.98324C33.7732 9.99086 35.3939 11.6177 37.3939 11.6177H46.1119V8.69612H37.3939C36.9994 8.69612 36.6777 8.37928 36.6777 7.98172C36.6777 7.58416 36.9994 7.26733 37.3939 7.26733H46.1119V4.34577H37.3939C36.9994 4.34577 36.6777 4.02894 36.6777 3.63138C36.6777 3.23382 36.9994 2.91698 37.3939 2.91698H46.1119V0H37.3939C35.3939 0 33.7732 1.62681 33.7732 3.63443C33.7732 4.45088 34.0448 5.20183 34.497 5.80807C34.0448 6.41432 33.7732 7.16527 33.7732 7.98172V7.98324Z" fill="currentColor"/>
<path d="M28.9036 0L22.3784 7.26123V0H18.3449V11.6177H18.4633H22.3784H23.3648L33.8218 0H28.9036Z" fill="currentColor"/>
<path d="M11.4585 8.51485V11.6192H0V0H4.035V8.51485H11.4585Z" fill="currentColor"/>
<path d="M12.7833 11.6177V0H16.8183V11.6177H12.7833Z" fill="currentColor"/>
<path d="M60.7875 3.07083H56.2077V11.6192H52.1727V3.07083H47.6096V0H60.7875V3.07083Z" fill="currentColor"/>
<path d="M76.0443 0V6.14166C76.0443 9.72734 73.5647 12 69.1322 12C64.6996 12 62.2048 9.72582 62.2048 6.14166V0H66.2398V5.82635C66.2398 7.55217 67.1321 8.79817 69.1337 8.79817C71.1352 8.79817 72.0108 7.55369 72.0108 5.82635V0H76.0458H76.0443Z" fill="currentColor"/>
<path d="M124.24 9.66033L121.152 6.2224C120.933 5.98021 120.935 5.61158 121.152 5.36939L124.229 1.94974C124.848 1.26124 125.988 1.69993 125.989 2.62758L126 8.97944C126.002 9.90861 124.86 10.3503 124.24 9.66033Z" fill="currentColor"/>
<path d="M121.376 11.6177L116.142 5.79284L121.355 0H116.825L113.881 3.27647L110.936 0H106.406L111.619 5.79284L106.385 11.6177H110.899L113.881 8.30617L116.862 11.6177H121.376Z" fill="currentColor"/>
<path d="M90.2465 3.63442C90.2465 1.62681 88.6243 0 86.6257 0H77.9078V2.92155H86.6257C87.0203 2.92155 87.342 3.23839 87.342 3.63595C87.342 4.03351 87.0203 4.35034 86.6257 4.35034H77.9078V7.2719H86.6257C87.0203 7.2719 87.342 7.58873 87.342 7.98629C87.342 8.38385 87.0203 8.70068 86.6257 8.70068H77.9078V11.6222H86.6257C88.6258 11.6222 90.2465 9.99543 90.2465 7.98781C90.2465 7.17136 89.9748 6.42041 89.5226 5.81417C89.9748 5.20792 90.2465 4.45697 90.2465 3.64052V3.63442Z" fill="currentColor"/>
</svg>
