<svg width="112" height="34" viewBox="0 0 112 34" fill="none" xmlns="http://www.w3.org/2000/svg">
<path d="M4.45398 4.57119C5.34631 3.6906 5.57859 2.49211 4.9728 1.89429C4.36701 1.29647 3.15255 1.5257 2.26022 2.40629C1.36789 3.28688 1.13561 4.48536 1.7414 5.08318C2.34719 5.681 3.56165 5.45177 4.45398 4.57119Z" fill="currentColor"/>
<path d="M28.3206 3.25547C25.9548 1.29706 23.1008 0.233755 20.1168 0C21.7056 0.302172 23.173 0.940723 24.4151 1.94416C26.443 3.5833 27.6505 5.96931 27.9018 8.8485C28.2715 13.0646 26.4748 17.8851 23.0979 21.7393C19.2646 26.1179 14.1141 28.5296 9.55865 28.5296C7.11483 28.5296 4.84143 27.8368 3.03889 26.3773C1.58878 25.2085 0.563293 23.6521 0 21.8134C0.554627 25.2541 2.21851 28.4041 4.98298 30.6932C11.7049 36.2634 22.3815 34.6357 28.8262 27.0586C35.2708 19.4815 35.0455 8.82569 28.3206 3.25547Z" fill="currentColor"/>
<path d="M27.2749 8.89984C27.0381 6.1917 25.9115 3.95107 24.0165 2.42026C22.3237 1.05193 20.1861 0.401978 17.8838 0.401978C13.5161 0.401978 8.54473 2.74238 4.82988 6.98419C1.55989 10.7186 -0.179095 15.368 0.176213 19.4217C0.413085 22.1298 1.53967 24.3676 3.43465 25.8984C8.34252 29.8609 16.9479 27.8112 22.6213 21.3345C25.8884 17.603 27.6274 12.9564 27.2749 8.90269V8.89984ZM7.57702 7.74817C8.4494 6.85021 9.67131 6.58794 10.3039 7.15808C10.9366 7.72821 10.7401 8.9198 9.86774 9.81776C8.99536 10.7157 7.77345 10.978 7.14083 10.4078C6.5082 9.83486 6.70464 8.64613 7.57702 7.74817ZM21.2896 22.1184C16.2893 26.8962 9.81286 28.4555 6.82596 25.5962C3.83906 22.7399 5.47117 16.5511 10.4744 11.7705C15.4776 6.98989 21.9511 5.43342 24.938 8.29265C27.9249 11.149 26.2928 17.3378 21.2896 22.1184Z" fill="currentColor"/>
<path d="M43.0067 24.7754C41.9032 24.0998 41.0626 23.1334 40.4791 21.8734C39.8956 20.6163 39.6038 19.1225 39.6038 17.3979C39.6038 15.6732 39.8956 14.1823 40.4791 12.9223C41.0597 11.6623 41.9032 10.6959 43.0067 10.0203C44.1073 9.34472 45.4072 9.00549 46.9035 9.00549C48.3999 9.00549 49.694 9.34472 50.7888 10.0203C51.8836 10.6959 52.7213 11.6623 53.3049 12.9223C53.8884 14.1823 54.1801 15.6732 54.1801 17.3979C54.1801 19.1225 53.8884 20.6134 53.3049 21.8734C52.7213 23.1334 51.8836 24.0998 50.7888 24.7754C49.694 25.451 48.3999 25.7903 46.9035 25.7903C45.4072 25.7903 44.1073 25.451 43.0067 24.7754ZM50.032 21.8278C50.7946 20.756 51.1788 19.2793 51.1788 17.3979C51.1788 15.5164 50.7975 14.0369 50.032 12.9565C49.2694 11.8761 48.2266 11.3373 46.9035 11.3373C45.5805 11.3373 44.5146 11.8761 43.7491 12.9565C42.9865 14.0369 42.6052 15.5164 42.6052 17.3979C42.6052 19.2793 42.9865 20.7531 43.7491 21.8278C44.5117 22.9025 45.5632 23.4356 46.9035 23.4356C48.2439 23.4356 49.2694 22.8997 50.032 21.8278Z" fill="currentColor"/>
<path d="M58.6547 25.066C57.6697 24.5842 56.8724 23.9001 56.2571 23.0135L58.0279 21.3345C58.5305 21.9417 59.1487 22.4377 59.8824 22.8254C60.6132 23.2131 61.3181 23.4069 61.9969 23.4069C62.8 23.4069 63.4412 23.2216 63.9208 22.8482C64.4003 22.4747 64.64 21.9844 64.64 21.3801C64.64 20.9439 64.5621 20.5847 64.4032 20.2968C64.2443 20.0089 63.9554 19.721 63.5279 19.4331C63.1033 19.1451 62.4504 18.7831 61.5665 18.3498C60.4024 17.7911 59.4809 17.2637 58.802 16.7648C58.1261 16.2688 57.6292 15.7386 57.3144 15.1799C56.9995 14.6211 56.8406 13.9769 56.8406 13.2442C56.8406 12.4061 57.0659 11.6621 57.5137 11.0179C57.9614 10.3736 58.5883 9.87475 59.3913 9.52697C60.1944 9.17633 61.1245 9.00244 62.1789 9.00244C63.3286 9.00244 64.357 9.22764 65.2611 9.67805C66.1682 10.1285 66.8326 10.7414 67.2572 11.5196L65.3449 12.9193C64.9665 12.4375 64.5129 12.0612 63.9872 11.7876C63.4586 11.5167 62.8953 11.3799 62.2973 11.3799C61.5261 11.3799 60.9252 11.5395 60.4919 11.8588C60.0586 12.1781 59.8419 12.6256 59.8419 13.1986C59.8419 13.5578 59.9402 13.8628 60.1366 14.1194C60.333 14.376 60.6883 14.6582 61.1996 14.9689C61.7109 15.2796 62.4938 15.6844 63.551 16.1804C65.0474 16.8789 66.0988 17.6058 66.7026 18.3612C67.3092 19.1138 67.6125 20.0602 67.6125 21.1919C67.6125 22.1098 67.3756 22.9137 66.9048 23.6036C66.4339 24.2963 65.7637 24.8322 64.8971 25.2114C64.0305 25.5905 63.0311 25.7815 61.8987 25.7815C60.7663 25.7815 59.634 25.5421 58.6518 25.0574L58.6547 25.066Z" fill="currentColor"/>
<path d="M70.689 9.24194H81.2933V11.6194H73.6643V15.7928H80.4903V18.1703H73.6643V23.1817H81.2933V25.5592H70.689V9.24194Z" fill="currentColor"/>
<path d="M84.624 9.24194H90.2916C92.5101 9.24194 94.1855 9.8976 95.3092 11.2118C96.4358 12.5259 96.9991 14.4786 96.9991 17.0727C96.9991 19.0939 96.7478 20.7245 96.2422 21.9674C95.7396 23.2103 94.951 24.1196 93.8793 24.6955C92.8076 25.2713 91.3979 25.5592 89.6531 25.5592H84.6211V9.24194H84.624ZM90.0085 23.1817C91.4412 23.1817 92.4696 22.7085 93.0907 21.7593C93.7118 20.8128 94.0237 19.2507 94.0237 17.0727C94.0237 15.1628 93.7204 13.7745 93.1138 12.9136C92.5072 12.0499 91.5424 11.6194 90.2193 11.6194H87.5964V23.1817H90.0056H90.0085Z" fill="currentColor"/>
<path d="M107.936 22.5746H102.008L101.087 25.5592H97.9437L103.637 9.24194H106.306L112 25.5592H108.857L107.936 22.5746ZM107.205 20.2199L104.983 13.0875L102.739 20.2199H107.202H107.205Z" fill="currentColor"/>
</svg>
