<svg width="220" height="38" viewBox="0 0 220 38" fill="none" xmlns="http://www.w3.org/2000/svg">
<path d="M0 26.1269V25.6798L2.81849 25.1657V25.6798C2.81849 27.8406 4.36604 29.0402 7.01632 29.0402C9.6666 29.0402 11.3487 27.9076 11.3487 25.3371C11.3487 22.5243 9.6965 21.4625 6.08555 19.4769C2.4073 17.4576 0.239235 15.7774 0.239235 12.1786C0.239235 8.5798 3.02408 6.38548 6.9453 6.38548C10.8665 6.38548 13.4794 8.44195 13.4794 11.631V11.8731L10.6609 12.4543V12.1786C10.6609 10.2265 9.21803 8.9896 6.91165 8.9896C4.60528 8.9896 3.09511 10.0514 3.09511 12.1078C3.09511 14.44 4.53799 15.3639 7.70412 17.1447C11.5581 19.3055 14.2046 20.8478 14.2046 25.2327C14.2046 29.3122 11.5581 31.6071 7.01632 31.6071C2.47459 31.6071 0 29.5208 0 26.1269Z" fill="currentColor"></path>
<path d="M21.4041 6.38548H34.2031V9.00078H24.3123V17.0553H33.7434V19.6706H24.3123V29.0327H34.2742V31.648H21.4041V6.38548Z" fill="currentColor"></path>
<path d="M41.5334 6.38548H54.3325V9.00078H44.4416V17.0553H53.8727V19.6706H44.4416V29.0327H54.4036V31.648H41.5334V6.38548Z" fill="currentColor"></path>
<path d="M61.6666 6.38548H67.3373C73.2583 6.38548 76.873 9.45901 76.873 19.0335C76.873 28.608 73.0789 31.648 67.1578 31.648H61.6629V6.38548H61.6666ZM67.1952 28.9992C71.1314 28.9992 73.8975 26.9837 73.8975 19.0335C73.8975 11.0833 71.2398 9.03431 67.3746 9.03431H64.5748V28.9992H67.199H67.1952Z" fill="currentColor"></path>
<path d="M129.703 6.38548H132.716L136.439 24.2306C136.686 25.4674 137.078 27.6208 137.254 28.8576H137.325C137.571 27.5165 138.035 24.6888 138.603 21.932L141.971 6.38548H145.661L149.384 21.932C149.986 24.6888 150.483 27.1961 150.767 28.8576H150.838C151.085 27.2669 151.406 25.2886 151.761 23.4855L155.271 6.38548H158.213L152.576 31.648H148.924L144.775 14.4065C144.386 12.7114 144.031 10.5543 143.851 9.60058H143.78C143.638 10.4835 143.283 12.7449 142.928 14.4772L139.171 31.648H135.448L129.707 6.38548H129.703Z" fill="currentColor"></path>
<path d="M164.583 6.38548H177.382V9.00078H167.491V17.0553H176.922V19.6706H167.491V29.0327H177.453V31.648H164.583V6.38548Z" fill="currentColor"></path>
<path d="M184.716 6.38548H191.807C196.236 6.38548 198.472 8.53882 198.472 12.6741C198.472 15.3229 197.799 17.2676 195.493 18.3629C198.259 19.3874 199.358 21.5445 199.358 24.618C199.358 28.962 197.41 31.648 192.054 31.648H184.716V6.38548ZM191.878 17.1969C194.326 17.1969 195.53 15.7476 195.53 13.0616C195.53 10.2004 194.289 8.96352 191.665 8.96352H187.587V17.1969H191.878ZM192.02 29.0327C195.033 29.0327 196.378 27.6208 196.378 24.4057C196.378 21.1906 194.711 19.7414 191.912 19.7414H187.587V29.0327H192.02Z" fill="currentColor"></path>
<path d="M205.615 26.1492V25.7022L208.445 25.188V25.7022C208.445 27.8667 209.996 29.07 212.654 29.07C215.312 29.07 216.998 27.9337 216.998 25.3557C216.998 22.5355 215.342 21.47 211.719 19.4769C208.03 17.4502 205.854 15.7625 205.854 12.1563C205.854 8.55 208.65 6.34824 212.579 6.34824C216.508 6.34824 219.132 8.41216 219.132 11.6086V11.8508L216.302 12.4357V12.16C216.302 10.2004 214.852 8.96353 212.542 8.96353C210.232 8.96353 208.714 10.029 208.714 12.0929C208.714 14.4288 210.164 15.3602 213.334 17.1447C217.199 19.3092 219.853 20.859 219.853 25.2588C219.853 29.3494 217.199 31.6518 212.646 31.6518C208.094 31.6518 205.611 29.5543 205.611 26.1529L205.615 26.1492Z" fill="currentColor"></path>
<path d="M106.629 0.149019C94.5459 -1.37098 83.6479 8.87039 85.4587 21.9059C85.6747 23.4706 86.1107 25.0055 86.7515 26.4473C89.598 32.8625 95.2762 37.0165 101.897 37.8473C102.702 37.9478 103.503 38 104.3 38C108.495 38 112.553 36.6178 115.917 34.0025C118.153 32.2665 119.915 30.0945 121.163 27.6469C121.171 27.6394 121.178 27.632 121.185 27.6245H121.178C122.162 25.6873 122.832 23.5861 123.112 21.3694C124.416 10.9753 117.02 1.46039 106.625 0.152745L106.629 0.149019ZM106.174 2.40667C112.765 3.29333 118.421 7.8049 120.265 14.1904C120.824 16.1239 121.062 18.1506 120.925 20.1624C120.813 21.7643 120.589 24.0778 119.572 25.3929C119.155 25.9331 118.481 26.261 117.795 26.2237C116.033 26.1306 113.443 25.6016 112.109 24.2678C111.305 23.4631 111.55 22.4125 112.061 20.628C112.612 18.702 113.294 16.3065 111.677 13.9818C109.621 11.0275 106.759 11.0573 104.673 11.0722C103.752 11.0796 102.795 11.1206 101.949 10.6996C99.6093 9.5298 99.9707 6.56059 100.552 4.46314C100.764 3.70686 101.185 2.85373 101.927 2.49608C103.182 1.8851 104.829 2.22412 106.174 2.40294V2.40667ZM88.987 25.7916C88.3536 24.4169 87.9251 22.9453 87.7239 21.4439C87.0198 16.2059 88.6629 11.5192 91.651 8.08059C91.8633 7.83471 92.2657 8.03961 92.18 8.35255C91.4125 11.2361 91.215 14.4325 92.0831 17.3384C93.0481 20.5684 95.2613 23.0347 98.4766 24.4653C101.882 25.9816 103.693 28.0455 103.723 30.4373C103.737 31.8194 103.16 33.0749 102.348 34.0175C101.536 34.96 100.291 35.2506 99.1473 34.8855C94.7396 33.481 91.0585 30.292 88.987 25.7878V25.7916ZM114.513 32.1845C111.64 34.4161 108.201 35.6231 104.628 35.6902C104.356 35.6939 104.211 35.3735 104.378 35.1575C105.422 33.7939 106.044 32.1063 106.025 30.4149C106.003 28.5 105.116 24.9086 99.4155 22.3678C96.7926 21.198 95.0675 19.2869 94.2888 16.679C93.8156 15.1031 93.7225 13.4304 93.8827 11.7986C94.0094 10.5096 94.2925 9.24294 94.639 7.99863C94.952 6.86608 95.347 5.76706 96.0847 4.83569C96.5914 4.19118 97.3067 3.78882 98.0631 3.49824C98.1525 3.46471 98.2456 3.43118 98.3388 3.47961C98.3649 3.49078 98.3872 3.50941 98.4021 3.53176C98.4356 3.58765 98.4021 3.66216 98.3872 3.71804C98.3649 3.79627 98.3425 3.87451 98.3202 3.95647C98.2792 4.10922 98.2382 4.26569 98.1972 4.42216C98.1227 4.7202 98.0593 5.01823 98.0035 5.32C97.9029 5.86765 97.8321 6.42274 97.806 6.97784C97.7836 7.47333 97.8023 7.97255 97.8693 8.46431C97.9327 8.91137 98.037 9.35471 98.1935 9.77941C98.227 9.86882 98.2605 9.95451 98.2978 10.0402C98.879 11.4037 99.9409 12.3984 101.457 12.9982C102.467 13.3969 103.6 13.3857 104.699 13.3745C106.707 13.3596 108.432 13.341 109.796 15.3006C110.79 16.7275 110.355 18.2437 109.855 20.0022C109.308 21.9208 108.685 24.0965 110.489 25.8959C112.169 27.5798 115.079 28.3473 117.378 28.5037C117.638 28.5224 117.784 28.8204 117.627 29.029C116.748 30.1988 115.708 31.2643 114.52 32.1882L114.513 32.1845Z" fill="currentColor"></path>
</svg>