<svg width="50" height="49" viewBox="0 0 50 49" fill="none" xmlns="http://www.w3.org/2000/svg">
<path d="M35.1656 27.8038C34.1003 27.5619 32.9012 27.4183 31.7662 27.5232C30.1013 27.6779 28.5725 28.3706 27.8037 30.0763C27.7849 30.1183 27.7904 30.1725 27.7849 30.22C27.8159 30.22 27.8469 30.2244 27.8767 30.22C30.4531 29.9095 33.0693 29.967 35.6601 29.9648C36.2884 29.9648 36.9179 30.031 37.5462 30.0565C37.7143 30.0631 37.8847 30.0321 38.0539 30.0189C37.2995 29.0069 36.4267 28.0889 35.1656 27.8027V27.8038Z" fill="currentColor"/>
<path d="M49.9866 26.288C49.9512 25.4186 49.8925 24.5502 49.8427 23.6819C49.8361 23.567 49.7941 23.441 49.8262 23.3394C50.1016 22.4721 49.8184 21.6623 49.5938 20.8426C49.5219 20.5786 49.4899 20.3035 49.4434 20.0328C49.3649 19.581 49.3394 19.1125 49.2034 18.6784C48.8361 17.5062 48.606 16.3086 48.4721 15.0923C48.3737 14.1897 48.012 13.5036 47.0927 13.2141C46.5573 13.0451 46.2796 12.6629 46.1048 12.1425C45.93 11.6222 45.6623 11.1328 45.461 10.6201C45.2276 10.0258 44.7364 9.52531 44.7287 8.85803C44.7232 8.37966 44.5451 8.01177 44.2563 7.66708C43.5904 6.87164 42.9034 6.10162 42.4344 5.15372C42.0539 4.38369 41.3061 4.15611 40.4941 4.25333C39.92 4.32183 39.4 4.27432 38.8856 3.99481C38.5062 3.78933 38.1002 3.55511 37.6843 3.5043C36.5261 3.36178 35.4265 3.12094 34.474 2.3951C34.2218 2.20287 33.9209 2.05815 33.6211 1.94877C32.911 1.69026 32.1775 1.4925 31.4729 1.21852C30.9164 1.00198 30.3667 0.963317 29.7759 0.987622C29.3368 1.0053 28.8821 0.85284 28.4463 0.731315C27.8069 0.553447 27.1896 0.230853 26.5425 0.159043C25.3732 0.0275746 24.1895 0.0098982 23.0114 -4.47551e-05C22.1353 -0.00667339 21.2525 0.154623 20.3841 0.0894419C19.6175 0.0319937 18.9803 0.245215 18.3376 0.582171C18.1761 0.667238 17.987 0.75341 17.8122 0.751201C16.9051 0.739048 16.1307 1.08816 15.332 1.48256C13.9083 2.1852 12.3873 2.69781 11.1782 3.78601C11.1129 3.84457 11.0078 3.85672 10.9282 3.90312C10.3275 4.24781 9.71465 4.57261 9.13499 4.94934C8.75334 5.19681 8.45134 5.57243 8.06085 5.79891C7.37278 6.19884 6.68914 6.6529 5.81633 6.55015C5.66367 6.53248 5.4369 6.64075 5.33844 6.76559C5.06963 7.10475 4.75547 7.45386 4.63046 7.85268C4.29085 8.93205 3.5873 9.79156 3.01096 10.7273C2.6979 11.2355 2.21006 11.6476 1.94567 12.1746C1.51314 13.0352 1.13149 13.93 1.03193 14.9155C0.997639 15.2558 0.86268 15.585 0.783032 15.9219C0.724403 16.1661 0.652498 16.4125 0.633693 16.661C0.559576 17.6244 0.594975 18.6021 0.187886 19.5158C0.137 19.6307 0.170187 19.7842 0.164656 19.919C0.151381 20.193 0.150275 20.4681 0.122619 20.7399C0.0308032 21.6546 -0.107474 22.5638 0.134788 23.4819C0.24541 23.9017 0.33612 24.3503 0.313995 24.7789C0.240985 26.1853 0.637011 27.521 0.899185 28.871C1.10384 29.926 1.44787 30.9568 1.76093 31.9887C1.96116 32.6504 2.13262 33.3431 2.47223 33.9331C2.76759 34.4457 2.97335 34.9594 3.12822 35.5195C3.20344 35.7935 3.3561 36.0642 3.53752 36.284C3.72447 36.5116 3.98332 36.6817 4.21895 36.8684C5.1703 37.6208 5.4734 38.6394 5.39486 39.795C5.36167 40.2822 5.4203 40.565 5.86279 40.7661C6.74223 41.1649 7.43141 41.9195 8.42148 42.1139C8.56307 42.1415 8.68254 42.2962 8.80644 42.3989C9.78213 43.2109 10.7534 44.0296 11.7324 44.8383C12.9227 45.8204 14.3397 46.4037 15.7126 47.0589C16.29 47.334 16.8984 47.5494 17.5069 47.7516C18.0301 47.925 18.5721 48.0432 19.1076 48.1758C19.3277 48.2299 19.5534 48.2642 19.779 48.2973C20.1839 48.357 20.6474 48.3039 20.9837 48.4873C21.5623 48.8022 22.1773 48.7657 22.7758 48.8596C23.3189 48.9447 23.9085 49.0729 24.4207 48.9469C25.0977 48.7812 25.7393 48.5702 26.4407 48.7359C26.5059 48.7514 26.5801 48.7359 26.6475 48.7249C27.2869 48.6276 27.9297 48.547 28.5646 48.4266C29.1498 48.315 29.7461 48.2785 30.3003 47.9847C30.6554 47.7969 31.0912 47.7604 31.4906 47.6565C31.5005 47.693 31.5105 47.7295 31.5204 47.7659C31.735 47.7018 31.9541 47.6521 32.162 47.5726C32.6355 47.3925 33.0935 47.1594 33.578 47.0169C35.3623 46.4943 37.0549 45.7729 38.6898 44.8869C39.7629 44.3058 40.6335 43.4131 41.7795 42.9535C41.8802 42.9127 41.962 42.811 42.0384 42.7248C43.0428 41.5781 44.0451 40.4291 45.0429 39.2768C45.1314 39.1741 45.1767 39.0338 45.2486 38.9156C45.763 38.0704 46.2763 37.2231 46.7973 36.3823C47.221 35.6985 47.69 35.0489 47.8361 34.2181C47.9478 33.5851 48.0883 32.9255 48.3803 32.3643C48.6547 31.8395 48.8416 31.317 48.9334 30.7458C49.0518 30.0133 49.1934 29.293 49.5972 28.6467C49.6879 28.5009 49.6801 28.2921 49.71 28.1109C49.7399 27.9297 49.7078 27.7143 49.7941 27.5696C50.0408 27.1597 49.9998 26.7211 49.9821 26.2858L49.9866 26.288ZM25.1276 11.5725C25.1353 10.9958 25.9882 10.2545 26.684 10.1937C27.2604 10.1429 28.0768 10.7008 28.1166 11.2775C28.1697 12.0464 28.0469 12.8297 28.1133 13.5964C28.2128 14.7376 28.2482 15.9253 28.6133 16.9903C28.9695 18.0265 29.5702 19.0562 30.308 19.866C31.2583 20.9078 32.6897 21.0503 34.015 20.9089C35.2716 20.7741 36.6279 20.4626 37.4498 19.434C38.3524 18.306 38.4885 16.8964 38.3713 15.4248C38.2861 14.3598 38.285 13.2893 38.3248 12.2221C38.3425 11.7337 38.3126 11.1902 38.3956 10.7096C38.5106 10.0423 39.4166 9.19498 40.1113 9.47007C40.6357 9.67666 41.1479 10.2909 41.2839 10.7008C41.4775 11.2852 41.2695 11.9923 41.2839 12.6452C41.3094 13.7621 41.4687 14.8846 41.3946 15.9926C41.3182 17.135 41.1766 18.3138 40.7939 19.381C40.4598 20.3112 39.9133 21.3099 39.1644 21.9109C38.2263 22.6644 37.0349 23.2355 35.8635 23.5316C34.6101 23.8476 33.2329 23.9327 31.9441 23.7935C29.954 23.5791 28.3002 22.5616 27.1785 20.8658C26.6686 20.0947 26.1929 19.2517 25.9362 18.3723C25.5557 17.0654 25.3179 15.7065 25.1442 14.3532C25.0269 13.4406 25.1143 12.4994 25.1265 11.5713L25.1276 11.5725ZM23.6973 36.4276C23.1607 37.0264 22.6065 37.6451 21.9483 38.0914C21.289 38.5389 20.5147 38.8471 19.7525 39.1056C17.9239 39.7243 16.05 39.6757 14.1727 39.3365C12.6616 39.0636 11.1118 38.8449 9.87947 37.8384C9.04981 37.1612 8.33187 36.2752 8.47679 35.1428C8.5321 34.7031 9.11618 34.1485 9.57969 33.9817C10.4248 33.6779 10.9514 34.2722 11.4226 34.9627C11.7003 35.3693 12.1915 35.767 12.6572 35.8819C13.9006 36.189 15.1761 36.4508 16.4515 36.5282C18.0699 36.6254 19.6098 36.2476 20.8598 35.1019C20.8753 35.0875 20.8498 34.9826 20.8277 34.976C19.7326 34.6755 18.6363 34.3595 17.5135 34.1772C17.0091 34.0955 16.5024 34.0734 15.9958 34.0601C15.3608 34.0435 14.7258 34.0402 14.0953 33.9474C13.2734 33.8259 12.4525 33.6878 11.6516 33.4635C10.4569 33.1299 9.42814 32.4007 8.88498 31.1755C8.33077 29.9249 8.5144 28.6986 9.3153 27.6977C9.99341 26.8504 10.8485 26.0516 11.791 25.5268C13.6395 24.4972 15.6904 24.611 17.7204 24.9391C19.5357 25.233 21.2514 25.7876 22.5822 27.1177C23.3753 27.9109 23.8477 29.6035 22.9362 30.189C22.549 30.4376 21.914 30.7237 21.6021 30.569C21.0866 30.3149 20.7735 29.6819 20.3167 29.2731C19.9129 28.9108 19.466 28.4567 18.9748 28.3551C17.6042 28.0744 16.2037 27.848 14.8088 27.8082C13.7203 27.7773 12.6815 28.1496 11.9337 29.0875C11.4215 29.7294 11.5631 30.3558 12.4559 30.5259C13.8066 30.7834 15.186 30.8905 16.5522 31.0706C17.7712 31.2308 19.0102 31.3147 20.2027 31.5932C21.6109 31.9224 22.9782 32.4184 23.8942 33.6701C24.3964 34.3562 24.3411 35.7106 23.6995 36.4265L23.6973 36.4276ZM23.5103 23.8288C22.5822 23.9824 21.6452 23.5736 21.5291 22.3705C21.3045 20.0483 21.2072 17.715 21.0103 15.3894C20.945 14.6205 20.7492 13.8604 20.5844 13.1026C20.5567 12.9766 20.3587 12.7822 20.2724 12.7976C20.1253 12.8253 19.9262 12.9711 19.8863 13.107C19.6784 13.8151 19.4405 14.5266 19.3531 15.2536C19.2281 16.2854 19.2458 17.3349 19.1651 18.3734C19.0821 19.4329 18.9604 20.4902 18.8421 21.5474C18.7757 22.1407 18.8509 22.8478 18.5478 23.2886C18.2724 23.6896 17.5644 24.0133 17.0622 23.9923C16.2524 23.9592 15.842 23.3074 15.8066 22.4799C15.7258 20.6194 15.6506 18.7601 15.5588 16.8997C15.5223 16.1551 15.5223 15.3972 15.3696 14.6736C15.2679 14.1908 14.9747 13.7179 14.6528 13.3368C14.5787 13.2495 13.9658 13.4749 13.7247 13.6925C12.9404 14.4029 12.6052 15.3629 12.5023 16.3882C12.3397 18 12.2114 19.6152 12.0919 21.2315C12.0499 21.8027 12.2269 22.4346 12.0388 22.9406C11.7545 23.7051 10.8828 24.0243 10.187 23.8233C9.56973 23.6454 9.11397 22.9174 9.10512 21.8314C8.96463 20.3963 8.80755 18.6993 8.63166 17.0046C8.48453 15.5916 8.36395 14.172 8.1416 12.7711C7.93916 11.4984 8.25665 10.7395 9.28765 10.4356C10.104 10.1948 11.1184 11.0245 11.0465 11.8741C11.0421 11.9326 11.0598 11.9934 11.0676 12.053C11.1162 12.0155 11.1704 11.9834 11.2114 11.9403C12.3342 10.7715 13.6484 10.0114 15.3188 10.3561C15.8685 10.4699 16.4062 10.8555 16.842 11.2388C17.1661 11.5238 17.2237 11.6862 17.5323 11.2112C18.3343 9.97495 19.5777 9.51758 20.9749 9.78051C22.1784 10.0081 22.9152 10.946 23.4063 12.0144C24.3289 14.0217 23.976 16.1783 24.0911 18.2828C24.1574 19.5014 24.361 20.7133 24.5192 21.9264C24.6342 22.8113 24.1928 23.7161 23.5092 23.8299L23.5103 23.8288ZM40.004 33.1454C39.1003 33.1089 38.1954 33.0945 37.2916 33.0603C36.5471 33.0316 35.7971 33.0139 35.046 33.0028C33.9054 32.9863 32.7649 32.9918 31.6244 33.0017C30.537 33.0106 29.4828 33.1012 28.4009 33.1663C28.1863 33.1807 27.9662 33.1299 27.7493 33.1089C27.8533 33.405 27.8821 33.7684 28.0757 33.9861C28.7117 34.6998 29.3368 35.461 30.1067 36.0045C30.5846 36.3426 31.3125 36.3967 31.9375 36.4453C33.9962 36.6033 35.7241 35.9404 37.1113 34.3507C37.9509 33.3873 38.9033 33.4923 39.6666 34.4943C40.1224 35.092 39.7131 36.3525 39.0615 36.727C38.5471 37.022 38.1821 37.5711 37.6777 37.8926C37.0117 38.3157 36.2916 38.6648 35.5637 38.9741C34.0327 39.6248 32.4054 39.5696 30.8102 39.3984C29.3379 39.2404 28.0248 38.5753 27.006 37.4893C26.2183 36.6508 25.3256 35.8012 24.8809 34.7815C24.4628 33.8237 24.4639 32.635 24.4827 31.5512C24.4971 30.7104 24.746 29.8487 25.0258 29.0422C25.5535 27.5187 26.6398 26.4305 28.0027 25.6009C29.5492 24.6596 31.2594 24.4773 33.0227 24.4663C35.9011 24.4486 38.2739 25.4981 40.0881 27.7364C41.0184 28.8842 41.7762 30.1271 41.9178 31.6506C41.9941 32.4714 41.0671 33.1918 40.0096 33.1487L40.004 33.1454Z" fill="currentColor"/>
</svg>
