<svg width="30" height="32" viewBox="0 0 30 32" fill="none" xmlns="http://www.w3.org/2000/svg">
<path d="M10.3113 32H8.28018C3.7147 32 0 28.3293 0 23.8179V8.18205C0 3.67068 3.7147 0 8.28018 0H21.2696C25.8351 0 29.5498 3.67068 29.5498 8.18205V17.1101C29.5498 21.6215 25.8351 25.2921 21.2696 25.2921H13.1632V29.17C13.1632 30.7271 11.881 31.9941 10.3053 31.9941L10.3113 32ZM8.28018 2.96022C5.36235 2.96022 2.99573 5.30472 2.99573 8.18205V23.812C2.99573 26.6894 5.36834 29.0339 8.28018 29.0339H10.1735V25.156C10.1735 23.5989 11.4557 22.3319 13.0314 22.3319H21.2756C24.1935 22.3319 26.5601 19.9874 26.5601 17.1101V8.18205C26.5601 5.2988 24.1875 2.96022 21.2756 2.96022H8.28018Z" fill="currentColor"/>
<path d="M17.0097 9.82202H15.1164C14.3495 9.82202 13.6545 10.124 13.1392 10.6154C13.6785 11.1304 14.02 11.8468 14.02 12.6461C14.02 13.4453 13.6785 14.1676 13.1392 14.6768C13.6545 15.1623 14.3495 15.4642 15.1164 15.4642H17.0097C18.5854 15.4642 19.8676 14.1972 19.8676 12.6402C19.8676 11.0831 18.5854 9.8161 17.0097 9.8161V9.82202Z" fill="currentColor"/>
</svg>
