<svg width="154" height="32" viewBox="0 0 154 32" fill="none" xmlns="http://www.w3.org/2000/svg"><path d="M10.1891 32H8.18205C3.67068 32 0 28.3293 0 23.8179V8.18205C0 3.67068 3.67068 0 8.18205 0H21.0176C25.529 0 29.1996 3.67068 29.1996 8.18205V17.1101C29.1996 21.6215 25.529 25.2921 21.0176 25.2921H13.0072V29.17C13.0072 30.7271 11.7402 31.9941 10.1832 31.9941L10.1891 32ZM8.18205 2.96022C5.2988 2.96022 2.96022 5.30472 2.96022 8.18205V23.812C2.96022 26.6894 5.30472 29.0339 8.18205 29.0339H10.0529V25.156C10.0529 23.5989 11.3199 22.3319 12.877 22.3319H21.0235C23.9068 22.3319 26.2453 19.9874 26.2453 17.1101V8.18205C26.2453 5.2988 23.9008 2.96022 21.0235 2.96022H8.18205Z" fill="currentColor"/><path d="M16.8081 9.82202H14.9373C14.1794 9.82202 13.4927 10.124 12.9835 10.6154C13.5164 11.1304 13.8538 11.8468 13.8538 12.6461C13.8538 13.4453 13.5164 14.1676 12.9835 14.6768C13.4927 15.1623 14.1794 15.4642 14.9373 15.4642H16.8081C18.3652 15.4642 19.6322 14.1972 19.6322 12.6402C19.6322 11.0831 18.3652 9.8161 16.8081 9.8161V9.82202Z" fill="currentColor"/><path d="M36.2568 6.82037H41.6385C42.6687 6.82037 43.5508 6.99799 44.2968 7.35321C45.0369 7.70844 45.6052 8.21168 45.996 8.85701C46.3867 9.50825 46.5821 10.2779 46.5821 11.166C46.5821 12.054 46.3867 12.8237 45.996 13.475C45.6052 14.1262 45.0369 14.6294 44.2968 14.9787C43.5567 15.334 42.6687 15.5116 41.6385 15.5116H38.6665V20.0762H36.2628V6.82037H36.2568ZM41.5023 13.3092C42.3371 13.3092 42.9825 13.1316 43.4383 12.7763C43.8942 12.4211 44.1251 11.8883 44.1251 11.1897C44.1251 10.491 43.8942 9.95229 43.4383 9.59114C42.9825 9.23591 42.3371 9.0583 41.5023 9.0583H38.6605V13.3092H41.5023Z" fill="currentColor"/><path d="M48.7372 10.5917H50.981V12.0718C51.2889 11.5389 51.6974 11.1304 52.2006 10.8285C52.7039 10.5266 53.2486 10.3845 53.8465 10.3845C54.255 10.3845 54.6695 10.4614 55.078 10.6213L54.7346 12.9243C54.2491 12.7526 53.7992 12.6698 53.3788 12.6698C52.8993 12.6698 52.4848 12.7763 52.1355 12.9895C51.7862 13.2026 51.5139 13.5045 51.3303 13.8953C51.1468 14.286 51.0521 14.7419 51.0521 15.2688V20.0881H48.7431V10.5976L48.7372 10.5917Z" fill="currentColor"/><path d="M58.6834 19.6618C57.9138 19.2296 57.304 18.6316 56.8659 17.8738C56.4218 17.116 56.2028 16.2694 56.2028 15.334C56.2028 14.3985 56.4218 13.5519 56.8659 12.7941C57.3099 12.0363 57.9138 11.4383 58.6834 11.0061C59.4531 10.5739 60.3115 10.3549 61.2529 10.3549C62.1942 10.3549 63.0586 10.5739 63.8224 11.0061C64.592 11.4383 65.1959 12.0363 65.634 12.7941C66.0781 13.5519 66.2971 14.3985 66.2971 15.334C66.2971 16.2694 66.0781 17.116 65.634 17.8738C65.19 18.6316 64.5861 19.2296 63.8224 19.6618C63.0586 20.094 62.2002 20.313 61.2529 20.313C60.3056 20.313 59.459 20.094 58.6834 19.6618ZM58.8788 16.7845C59.1038 17.2226 59.4176 17.5719 59.832 17.8324C60.2405 18.0929 60.7141 18.2231 61.2529 18.2231C61.7917 18.2231 62.2712 18.0929 62.6856 17.8324C63.0942 17.5719 63.4139 17.2226 63.6329 16.7845C63.852 16.3463 63.9645 15.8668 63.9645 15.3399C63.9645 14.813 63.852 14.3334 63.6329 13.8953C63.4139 13.4572 63.0942 13.1079 62.6856 12.8474C62.2771 12.5869 61.7976 12.4566 61.2529 12.4566C60.7082 12.4566 60.2405 12.5869 59.832 12.8474C59.4235 13.1079 59.1038 13.4572 58.8788 13.8953C58.6538 14.3334 58.5413 14.813 58.5413 15.3399C58.5413 15.8668 58.6538 16.3463 58.8788 16.7845Z" fill="currentColor"/><path d="M68.5529 10.5917H70.7967V12.0126C71.1223 11.4797 71.5427 11.0772 72.0578 10.793C72.5669 10.5147 73.1471 10.3726 73.7924 10.3726C74.4792 10.3726 75.089 10.5266 75.6278 10.8344C76.1606 11.1423 76.5751 11.5745 76.8711 12.1251C77.1967 11.5745 77.6526 11.1482 78.2328 10.8344C78.813 10.5266 79.4583 10.3726 80.1688 10.3726C80.8792 10.3726 81.5009 10.5266 82.0455 10.8344C82.5902 11.1423 83.0106 11.5745 83.3125 12.131C83.6145 12.6875 83.7684 13.3328 83.7684 14.067V20.0821H81.4594V14.7478C81.4594 14.0611 81.2818 13.5105 80.9207 13.1019C80.5595 12.6934 80.0622 12.4862 79.4228 12.4862C78.9906 12.4862 78.6235 12.5809 78.3038 12.7763C77.99 12.9717 77.7473 13.2381 77.5756 13.5815C77.4039 13.9249 77.321 14.3275 77.321 14.7774V20.0821H75.0121V14.7478C75.0121 14.0611 74.8344 13.5105 74.4733 13.1019C74.1122 12.6934 73.6148 12.4862 72.9873 12.4862C72.5551 12.4862 72.1821 12.5809 71.8624 12.7763C71.5427 12.9717 71.2999 13.2381 71.1282 13.5815C70.9566 13.9249 70.8737 14.3275 70.8737 14.7774V20.0821H68.5647V10.5917H68.5529Z" fill="currentColor"/><path d="M86.4504 10.5917H88.6942V12.0007C89.0376 11.4916 89.4817 11.089 90.0323 10.7989C90.5829 10.5088 91.2163 10.3608 91.9209 10.3608C92.7853 10.3608 93.5668 10.5798 94.2595 11.012C94.9521 11.4442 95.4968 12.0363 95.8935 12.7941C96.2902 13.546 96.4855 14.3985 96.4855 15.3399C96.4855 16.2812 96.2902 17.1278 95.8935 17.8857C95.4968 18.6435 94.9521 19.2355 94.2595 19.6677C93.5668 20.0999 92.7853 20.319 91.9209 20.319C91.24 20.319 90.6302 20.1828 90.0855 19.9105C89.5468 19.6381 89.1027 19.2592 88.7534 18.7737V23.4982H86.4445V10.5976L86.4504 10.5917ZM89.085 16.7845C89.304 17.2226 89.6237 17.5719 90.0323 17.8324C90.4408 18.0929 90.9144 18.2231 91.4532 18.2231C91.9919 18.2231 92.4596 18.0929 92.8681 17.8324C93.2767 17.5719 93.5904 17.2226 93.8095 16.7845C94.0285 16.3463 94.141 15.8668 94.141 15.3399C94.141 14.813 94.0285 14.3334 93.8095 13.8953C93.5904 13.4572 93.2767 13.1079 92.8681 12.8474C92.4596 12.5869 91.986 12.4566 91.4532 12.4566C90.9203 12.4566 90.4408 12.5869 90.0323 12.8474C89.6237 13.1079 89.304 13.4572 89.085 13.8953C88.8659 14.3334 88.7534 14.813 88.7534 15.3399C88.7534 15.8668 88.8659 16.3463 89.085 16.7845Z" fill="currentColor"/><path d="M100.31 19.4664C99.7654 18.9218 99.4931 18.087 99.4931 16.9621V12.5928H97.8235V10.5917H99.4931V7.76764H101.802V10.5917H105.011V12.5928H101.802V16.524C101.802 17.0983 101.92 17.5127 102.157 17.7732C102.394 18.0337 102.737 18.1639 103.187 18.1639C103.46 18.1639 103.744 18.1225 104.04 18.0396C104.336 17.9567 104.614 17.8502 104.875 17.7199L105.396 19.5552C104.561 20.0407 103.649 20.2835 102.66 20.2835C101.672 20.2835 100.855 20.0111 100.31 19.4664Z" fill="currentColor"/><path d="M107.415 6.82037H112.796C113.827 6.82037 114.709 6.99799 115.455 7.35321C116.195 7.70844 116.763 8.21168 117.154 8.85701C117.545 9.50825 117.74 10.2779 117.74 11.166C117.74 12.054 117.545 12.8237 117.154 13.475C116.763 14.1262 116.195 14.6294 115.455 14.9787C114.715 15.334 113.827 15.5116 112.796 15.5116H109.824V20.0762H107.421V6.82037H107.415ZM112.66 13.3092C113.495 13.3092 114.14 13.1316 114.596 12.7763C115.052 12.4211 115.283 11.8883 115.283 11.1897C115.283 10.491 115.052 9.95229 114.596 9.59114C114.14 9.22999 113.495 9.0583 112.66 9.0583H109.818V13.3092H112.66Z" fill="currentColor"/><path d="M121.547 19.6618C120.854 19.2296 120.309 18.6376 119.913 17.8797C119.516 17.1278 119.321 16.2753 119.321 15.334C119.321 14.3926 119.516 13.546 119.913 12.7882C120.309 12.0303 120.854 11.4383 121.547 11.0061C122.239 10.5739 123.021 10.3549 123.885 10.3549C124.584 10.3549 125.212 10.4969 125.762 10.7871C126.313 11.0772 126.763 11.4738 127.106 11.9771V10.5858H129.35V20.0762H127.106V18.6849C126.757 19.1882 126.313 19.5848 125.762 19.8749C125.212 20.165 124.59 20.3071 123.885 20.3071C123.021 20.3071 122.239 20.0881 121.547 19.6559V19.6618ZM121.991 16.7845C122.21 17.2226 122.53 17.5719 122.938 17.8324C123.347 18.0929 123.82 18.2231 124.359 18.2231C124.898 18.2231 125.371 18.0929 125.78 17.8324C126.188 17.5719 126.508 17.2226 126.727 16.7845C126.946 16.3463 127.059 15.8668 127.059 15.3399C127.059 14.813 126.946 14.3334 126.727 13.8953C126.508 13.4572 126.188 13.1079 125.78 12.8474C125.371 12.5869 124.898 12.4566 124.359 12.4566C123.82 12.4566 123.347 12.5869 122.938 12.8474C122.53 13.1079 122.21 13.4572 121.991 13.8953C121.772 14.3334 121.659 14.813 121.659 15.3399C121.659 15.8668 121.772 16.3463 121.991 16.7845Z" fill="currentColor"/><path d="M134.063 23.3917C133.317 23.1726 132.654 22.8707 132.079 22.5036L132.961 20.7216C133.453 21.0413 133.986 21.2899 134.548 21.4675C135.111 21.6451 135.703 21.734 136.312 21.734C137.289 21.734 138.041 21.5031 138.55 21.0472C139.059 20.5913 139.32 19.8927 139.32 18.9513V18.1284C138.971 18.6139 138.527 18.9987 137.976 19.277C137.425 19.5552 136.81 19.6973 136.117 19.6973C135.276 19.6973 134.513 19.4901 133.826 19.0816C133.139 18.6731 132.594 18.1106 132.204 17.4002C131.807 16.6897 131.612 15.8964 131.612 15.0261C131.612 14.1558 131.807 13.3743 132.204 12.6638C132.6 11.9534 133.139 11.3909 133.826 10.9824C134.513 10.5739 135.276 10.3667 136.117 10.3667C136.827 10.3667 137.455 10.5088 138.006 10.7989C138.556 11.089 139.006 11.4857 139.356 11.9889V10.5976H141.599V18.5665C141.599 20.2716 141.167 21.5563 140.303 22.4266C139.438 23.2969 138.16 23.7291 136.466 23.7291C135.608 23.7291 134.803 23.6167 134.057 23.3976L134.063 23.3917ZM134.288 16.37C134.507 16.7785 134.82 17.1042 135.223 17.341C135.626 17.5778 136.099 17.7021 136.632 17.7021C137.165 17.7021 137.633 17.5837 138.035 17.341C138.438 17.0982 138.752 16.7785 138.971 16.37C139.19 15.9615 139.302 15.5175 139.302 15.032C139.302 14.5465 139.19 14.0966 138.971 13.694C138.752 13.2855 138.438 12.9599 138.035 12.723C137.633 12.4862 137.165 12.3619 136.632 12.3619C136.099 12.3619 135.626 12.4803 135.223 12.723C134.82 12.9658 134.507 13.2855 134.288 13.694C134.069 14.1025 133.956 14.5465 133.956 15.032C133.956 15.5175 134.069 15.9674 134.288 16.37Z" fill="currentColor"/><path d="M146.253 19.6677C145.495 19.2355 144.909 18.6435 144.489 17.8916C144.068 17.1397 143.861 16.2871 143.861 15.3399C143.861 14.3926 144.062 13.5578 144.471 12.8C144.879 12.0422 145.448 11.4442 146.17 11.012C146.898 10.5798 147.721 10.3608 148.645 10.3608C149.568 10.3608 150.397 10.5798 151.096 11.0239C151.794 11.4679 152.333 12.0718 152.712 12.8355C153.085 13.5993 153.274 14.4518 153.274 15.3932C153.274 15.6833 153.263 15.9319 153.239 16.1391H146.182C146.318 16.8851 146.638 17.4416 147.129 17.8146C147.62 18.1876 148.201 18.3711 148.87 18.3711C149.373 18.3711 149.847 18.2705 150.279 18.0751C150.717 17.8797 151.102 17.6074 151.445 17.2522L152.771 18.5961C152.286 19.1526 151.7 19.573 151.025 19.8631C150.344 20.1532 149.616 20.3012 148.834 20.3012C147.869 20.3012 147.011 20.0881 146.253 19.6559V19.6677ZM151.013 14.5347C150.918 13.842 150.664 13.2973 150.243 12.9006C149.829 12.504 149.29 12.3086 148.645 12.3086C147.999 12.3086 147.478 12.504 147.034 12.8888C146.59 13.2736 146.306 13.8242 146.182 14.5347H151.013Z" fill="currentColor"/></svg>