<svg width="86" height="38" viewBox="0 0 86 38" fill="none" xmlns="http://www.w3.org/2000/svg">
<path d="M1.38529 38C0.345242 37.2073 0.409976 36.1869 0.763849 35.0877C1.53633 32.6921 2.30018 30.2966 3.05971 27.8967C3.8883 25.2734 4.56584 22.602 5.72672 20.097C5.73966 20.0663 5.75692 20.0313 5.76987 19.9963C6.02449 19.2868 6.02449 19.2956 5.27358 19.37C4.17312 19.4795 3.06835 19.5802 1.96357 19.6722C1.57085 19.7028 1.17814 19.7116 0.794058 19.6021C0.353874 19.4751 0.0690482 19.1992 0.00863069 18.7438C-0.0517868 18.2839 0.228723 17.9993 0.612806 17.8197C1.54928 17.3818 2.57206 17.2767 3.57758 17.1278C5.46778 16.8387 7.37093 16.6417 9.2784 16.5103C10.6853 16.4139 12.0619 16.5234 13.417 16.9088C14.1118 17.1059 14.7073 17.4475 14.9749 18.1832C15.1734 18.7262 15.044 19.0635 14.5175 19.2562C13.7838 19.5277 13.1063 19.7335 12.2777 19.3043C11.3326 18.8182 10.2235 18.9365 9.1662 18.989C8.90295 19.0021 8.89 19.2474 8.82095 19.4182C7.94059 21.5641 7.28031 23.7932 6.54235 25.9917C5.66198 28.6193 4.6953 31.2119 3.72862 33.8045C3.48264 34.4614 3.29275 35.1358 3.08992 35.8103C2.84394 36.6204 2.58501 37.4219 1.92473 38.0087H1.3896L1.38529 38Z" fill="currentColor"/>
<path d="M58.9502 27.7478C58.9847 29.8061 58.0137 31.317 56.7579 32.679C55.1396 34.4352 53.1415 35.3855 50.7809 35.7577C49.3093 35.9942 48.17 35.5081 47.0264 34.7549C46.6466 34.5052 46.556 34.295 47.0048 34.0235C47.3889 33.7914 47.5917 33.4454 47.6867 32.9812C48.2606 30.1039 48.9641 27.2617 50.0127 24.5158C50.988 21.9626 52.0626 19.4532 53.3227 17.0271C53.5472 16.5979 53.6809 16.0461 54.3455 16.0855C55.0144 16.1249 55.692 16.6198 55.9078 17.2329C55.9854 17.4562 55.9293 17.6577 55.8128 17.8504C53.9356 20.9598 52.8049 24.4063 51.4541 27.7522C51.3721 27.958 51.1607 28.269 51.3462 28.3872C51.6009 28.5536 51.7519 28.1901 51.9159 28.0281C52.6409 27.3318 53.3055 26.5741 54.078 25.9304C54.2722 25.7683 54.4707 25.6151 54.6778 25.4749C55.4935 24.9406 56.2962 24.5202 57.3103 25.0676C58.4367 25.6764 59.0538 26.526 58.9502 27.7434V27.7478ZM56.3609 28.2339C56.3307 27.9756 56.4429 27.6821 56.171 27.5289C55.8905 27.3756 55.6186 27.4894 55.364 27.6471C55.2734 27.704 55.1784 27.7522 55.0921 27.8179C53.4911 29.0704 52.0497 30.4849 50.8197 32.1141C50.6644 32.3199 50.5953 32.5652 50.5565 32.8148C50.4529 33.4717 50.6342 33.6775 51.2858 33.5023C53.0034 33.0469 54.3628 32.0221 55.4719 30.6514C56.0415 29.9507 56.3264 29.123 56.3652 28.2296L56.3609 28.2339Z" fill="currentColor"/>
<path d="M15.5877 30.4018C15.7819 30.2748 15.8682 30.2397 15.9243 30.1828C17.0464 29.0091 18.4144 28.1333 19.6098 27.0428C19.8903 26.7888 20.1881 26.5654 20.5247 26.3903C22.1819 25.5144 23.7268 26.3508 23.9296 28.2471C24.0634 29.5084 23.8304 30.7258 23.4506 31.917C23.3212 32.3243 23.2909 32.517 23.8088 32.4776C24.3267 32.4426 24.8316 32.5477 25.0819 33.0732C25.2545 33.4367 24.9352 33.9491 24.3526 34.3345C24.1756 34.4527 23.9858 34.5578 23.7916 34.6498C22.4839 35.2541 21.3403 34.6016 21.1289 33.1608C21.0037 32.3112 21.1375 31.4703 21.1677 30.6251C21.2022 29.5478 21.0296 29.4077 20.0672 29.885C18.6992 30.5638 17.6031 31.6061 16.5544 32.6922C16.0322 33.2352 15.5446 33.8133 15.0353 34.3695C14.6124 34.8293 14.1593 35.2804 13.4645 35.0264C12.843 34.7987 12.3252 33.9097 12.3468 33.1871C12.364 32.5871 12.5496 32.0178 12.7136 31.4484C14.1118 26.4559 15.9071 21.5992 17.6764 16.7337C17.8275 16.3176 18.0433 15.9848 18.5093 15.9191C18.9884 15.849 19.2775 16.1512 19.5278 16.4972C19.9637 17.0928 20.1967 17.7541 19.8946 18.4723C18.7683 21.1218 18.0044 23.9071 16.9298 26.5742C16.494 27.6559 15.9502 28.6982 15.7129 29.8544C15.6827 29.9945 15.6481 30.1303 15.5877 30.4062V30.4018Z" fill="currentColor"/>
<path d="M38.3737 35.3198C37.1352 35.3636 36.2462 34.6104 35.6334 33.4454C35.4564 33.1126 35.2881 32.771 35.163 32.4163C35.0292 32.0396 34.9602 31.9477 34.6322 32.3068C33.5231 33.5067 32.3579 34.6585 30.9036 35.4468C30.5108 35.6614 30.0966 35.8278 29.6607 35.9329C28.202 36.292 26.9462 34.9257 26.6398 34.041C26.5449 33.7651 26.5923 33.4717 26.6959 33.1958C27.3389 31.4484 28.1416 29.793 29.2032 28.2602C30.0707 27.0121 31.0071 25.8428 32.2155 24.91C32.5866 24.6253 32.9578 24.3538 33.4066 24.2005C34.0625 23.9772 34.6926 24.0297 35.2277 24.4764C36.1815 25.2647 37.105 26.0881 38.0458 26.8895C38.2874 27.0953 38.2443 27.3099 38.1493 27.5639C37.912 28.2208 37.6617 28.8777 37.5408 29.5741C37.3553 30.6864 37.6962 31.6674 38.2141 32.6177C38.4126 32.9856 38.7924 33.0819 39.1333 33.2221C39.9101 33.5418 40.0395 33.752 39.8799 34.4615C39.7375 35.1096 39.3404 35.3899 38.6154 35.3417C38.5809 35.3417 38.5464 35.333 38.3608 35.3154L38.3737 35.3198ZM33.9935 26.7274C33.6439 26.8019 33.2685 27.1085 32.9491 27.4719C31.7192 28.8646 30.718 30.4105 29.9369 32.1053C29.8333 32.3331 29.7211 32.5608 29.6477 32.8017C29.5614 33.0644 29.665 33.1958 29.9455 33.0951C30.1268 33.0294 30.3123 32.9418 30.472 32.8279C31.8141 31.8908 33.0311 30.8134 34.1488 29.6178C34.5286 29.2106 34.8221 28.7288 35.0853 28.2383C35.4047 27.6515 34.8177 26.7099 33.9935 26.7231V26.7274Z" fill="currentColor"/>
<path d="M69.5967 35.6132C68.7508 35.587 67.9999 34.7943 67.4259 33.8308C67.0246 33.1564 66.9814 33.0644 66.3471 33.6775C65.4839 34.5096 64.5691 35.2016 63.4039 35.5432C61.5309 36.095 60.055 34.8556 60.3226 32.8936C60.5858 30.9973 61.518 29.4076 62.6616 27.9318C63.6542 26.653 64.8237 25.5888 66.3255 24.9275C66.6405 24.7874 66.934 24.7304 67.2447 24.8969C67.3094 24.9319 67.3785 24.9494 67.4432 24.9801C68.069 25.2647 68.8199 25.3348 69.2169 26.0048C69.7218 26.8588 69.8383 27.8354 70.0023 28.7901C70.0325 28.9741 69.9462 29.1405 69.8772 29.3069C69.5751 30.0032 69.3938 30.7346 69.2816 31.4835C69.2169 31.9126 69.2989 32.3112 69.4844 32.6878C69.765 33.2527 70.1792 33.3622 70.7144 33.0206C71.0596 32.7973 71.3876 32.5389 71.8019 32.4601C72.2852 32.3681 72.6995 32.7579 72.6391 33.2396C72.4665 34.549 71.2797 35.6132 69.5967 35.6132ZM67.5381 28.6982C67.5036 28.2865 67.4907 27.8398 67.0807 27.6121C66.6664 27.38 66.3384 27.6953 66.0061 27.8924C65.9457 27.9274 65.8896 27.9799 65.8421 28.0281C64.5993 29.2762 63.6585 30.7214 63.0414 32.3769C62.9637 32.5827 62.7867 32.8805 63.0543 33.0688C63.3046 33.244 63.5204 33.0031 63.7318 32.8936C65.2725 32.0922 66.3471 30.809 67.2965 29.3989C67.4389 29.1887 67.5597 28.9697 67.5338 28.6982H67.5381Z" fill="currentColor"/>
<path d="M76.8209 31.0674C77.2956 30.6032 77.7487 30.1565 78.2062 29.7141C78.8923 29.0529 79.5785 28.3916 80.3898 27.8879C82.0211 26.8807 83.2899 27.542 83.4021 29.4777C83.4495 30.3404 83.428 31.2075 83.3934 32.0746C83.3762 32.5301 83.5272 32.5958 83.9156 32.4644C84.455 32.2805 85.0074 32.1272 85.5555 31.9695C85.6893 31.9301 85.8662 31.882 85.9569 32.0046C86.0388 32.1184 85.9871 32.2805 85.9266 32.4162C85.4476 33.441 84.8046 34.3475 83.9113 35.0439C83.169 35.6176 82.1376 35.3329 81.5852 34.422C81.0674 33.5724 81.0544 32.6046 80.9595 31.6586C80.9379 31.444 80.9681 31.225 80.9422 31.0104C80.9249 30.8265 81.0544 30.555 80.8257 30.4805C80.6401 30.4236 80.4934 30.6513 80.351 30.7827C79.1858 31.8995 78.0292 33.0294 76.8511 34.133C76.5274 34.4395 76.1563 34.7023 75.7808 34.9431C74.9652 35.4599 73.951 35.022 73.7482 34.0629C73.485 32.8148 73.8259 31.6323 74.1884 30.4586C74.7969 28.4879 75.7506 26.6705 76.7087 24.8618C77.0971 24.126 77.2654 24.056 77.8048 24.253C78.7499 24.5946 79.1944 25.1333 79.0779 25.8165C78.983 26.3727 78.7758 26.8938 78.4565 27.358C77.753 28.3916 77.4509 29.6222 76.8424 30.7039C76.7907 30.7959 76.7518 30.901 76.8252 31.0761L76.8209 31.0674Z" fill="currentColor"/>
<path d="M51.3721 9.07854C51.8771 8.54863 52.3992 8.04062 52.9689 7.58516C53.7543 6.95453 54.6002 6.41149 55.5151 5.99982C56.7666 5.43926 57.5218 5.99107 57.4009 7.36619C57.3535 7.92238 57.2154 8.46542 57.0341 8.99533C56.7666 9.75734 56.5033 10.5237 56.266 11.2989C56.0761 11.9208 55.9164 12.547 56.1192 13.2083C56.171 13.3835 56.2099 13.6331 55.9639 13.7251C55.7093 13.817 55.5021 13.6988 55.3856 13.4623C55.1353 12.9674 55.0619 12.4375 55.1223 11.8857C55.2259 10.9266 55.5496 10.0332 55.8776 9.13547C56.102 8.53111 56.3221 7.92238 56.3609 7.26109C56.3825 6.89322 56.2703 6.77498 55.8905 6.88008C55.3813 7.0246 54.9411 7.29612 54.5139 7.58954C53.4048 8.35594 52.3949 9.24057 51.4498 10.2084C51.083 10.585 50.8025 11.0186 50.5522 11.4828C50.4659 11.6449 50.3407 11.8069 50.1379 11.7587C49.9221 11.7106 49.8401 11.5179 49.8272 11.3033C49.797 10.8084 49.9437 10.3398 50.0732 9.87121C50.9492 6.7487 52.0669 3.71378 53.422 0.770828C53.5126 0.573755 53.6205 0.389821 53.7414 0.210265C53.8795 0.00443391 54.078 -0.0524982 54.3067 0.0438485C54.5484 0.144575 54.6692 0.332888 54.6174 0.604411C54.5009 1.23066 54.2549 1.80436 53.8967 2.33427C52.5848 4.28748 51.8771 6.49032 51.2901 8.7457C51.2686 8.82891 51.2686 8.9165 51.2599 9.00409C51.2988 9.03036 51.3333 9.05226 51.3721 9.07854Z" fill="currentColor"/>
<path d="M41.2306 33.3578C41.3428 31.6761 41.8305 30.0689 42.2232 28.4441C42.3958 27.7259 42.6159 27.0252 42.7885 26.307C42.9007 25.8428 43.1942 25.8077 43.561 25.9172C44.3594 26.1581 44.9377 27.0208 44.8773 27.8617C44.8427 28.3478 44.7262 28.8251 44.5795 29.285C43.9926 31.0937 43.725 32.9593 43.5697 34.8468C43.5481 35.0964 43.5049 35.346 43.4618 35.5957C43.3366 36.3008 43.0216 36.4321 42.4174 36.0249C41.7442 35.5738 41.2091 34.3738 41.2306 33.3578Z" fill="currentColor"/>
<path d="M39.3922 3.67863C39.841 3.66111 40.3416 3.77498 40.812 4.0246C41.8348 4.56765 42.1196 5.8114 41.4162 6.73983C40.7818 7.57629 39.8799 8.01423 38.9175 8.32955C37.817 8.68866 36.6691 8.73683 35.5255 8.74121C35.0853 8.74121 34.9515 8.86383 34.9515 9.32805C34.9515 10.528 35.5989 11.3513 36.4188 12.0958C36.5094 12.179 36.6216 12.2447 36.7123 12.3279C36.8806 12.4944 37.2388 12.6082 37.0834 12.8973C36.9065 13.2301 36.5612 13.0505 36.3066 12.9586C34.5459 12.306 33.6008 10.563 33.9115 8.57041C34.3387 5.84205 36.7382 3.66987 39.3965 3.67863H39.3922ZM36.5699 7.80402V7.81716C36.8547 7.80402 37.1438 7.79964 37.4243 7.76898C38.4687 7.6595 39.4656 7.41863 40.2337 6.6172C40.5876 6.24933 40.73 5.80702 40.5358 5.32966C40.3503 4.87421 39.923 4.77786 39.4742 4.74282C37.8041 4.6202 36.5828 5.33404 35.7283 6.74859C35.5643 7.02011 35.232 7.33105 35.3658 7.59819C35.5255 7.91788 35.9743 7.76898 36.3023 7.79964C36.3929 7.8084 36.4792 7.79964 36.5699 7.79964V7.80402Z" fill="currentColor"/>
<path d="M44.1781 12.0215C45.175 11.9426 46.146 11.5003 47.0048 10.7733C47.2508 10.5675 47.5011 10.3617 47.7557 10.1646C47.9025 10.0551 48.0621 10.0639 48.1916 10.204C48.3383 10.3617 48.3383 10.5456 48.1916 10.6858C46.9876 11.8638 45.7361 12.9762 43.9451 13.0769C42.2318 13.1733 41.0235 11.5266 41.4896 9.74419C41.7701 8.67124 42.4088 7.79974 43.1079 6.97641C44.0098 5.9166 44.9981 4.96189 46.2928 4.39257C46.6207 4.24805 46.9617 4.13856 47.3242 4.12981C48.1873 4.11667 48.8001 4.87868 48.6102 5.72391C48.498 6.21878 48.1743 6.37644 47.8248 6.02608C47.3673 5.56625 46.8926 5.53559 46.3661 5.77646C44.4371 6.65672 42.9871 7.98367 42.5339 10.1646C42.2923 11.3339 42.8921 12.0302 44.1825 12.0215H44.1781Z" fill="currentColor"/>
<path d="M30.4979 1.96197C31.361 1.94008 32.25 1.96197 33.0786 2.39115C33.8597 2.79406 34.0798 3.79256 33.536 4.48888C33.3677 4.70347 33.1347 4.84361 32.8801 4.77792C32.5952 4.70347 32.7118 4.42319 32.7204 4.22612C32.7765 3.28893 32.7161 3.12251 31.771 2.92106C30.4677 2.64078 29.1471 2.6583 27.8395 2.96047C25.9277 3.40279 24.1368 4.14291 22.4667 5.18083C22.2984 5.28593 22.1085 5.49614 21.9272 5.19834C21.746 4.89617 21.8194 4.62902 22.1214 4.46699C23.5715 3.70059 24.9395 2.7634 26.5923 2.43057C27.874 2.17218 29.1514 1.91818 30.4979 1.96197Z" fill="currentColor"/>
<path d="M24.577 14.198C24.6331 13.3703 24.8489 12.5689 25.0733 11.7762C25.8414 9.05661 26.8211 6.41145 27.9604 3.82761C28.0251 3.67871 28.1028 3.53857 28.1848 3.39843C28.297 3.21888 28.4005 2.96487 28.6638 3.0656C28.9184 3.16194 29.1169 3.35464 29.091 3.67871C29.0436 4.22614 28.8882 4.73852 28.5861 5.19836C26.9462 7.70337 26.0399 10.493 25.4617 13.4097C25.3754 13.8433 25.5609 14.1761 25.7594 14.5221C25.8673 14.7104 26.0874 14.9206 25.8673 15.1527C25.6515 15.3805 25.3624 15.3235 25.1164 15.214C24.6849 15.0257 24.5338 14.6535 24.577 14.1936V14.198Z" fill="currentColor"/>
<path d="M44.0832 21.5729C44.0832 21.1876 44.2256 20.7014 44.368 20.2197C44.4802 19.8475 44.5924 19.3876 45.0585 19.3526C45.6152 19.3088 46.2237 19.4052 46.5517 19.8956C46.9962 20.5613 47.2206 21.3277 47.0178 22.151C46.8495 22.8386 46.0986 23.4736 45.5807 23.3816C44.8773 23.259 44.0616 22.3437 44.0789 21.5686L44.0832 21.5729Z" fill="currentColor"/>
<path d="M21.0382 9.93247C21.0339 10.4142 20.7016 10.7295 20.2183 10.7164C19.7608 10.6989 19.4113 10.331 19.4285 9.87991C19.4458 9.45073 19.8601 9.07411 20.296 9.096C20.693 9.1179 21.0469 9.51204 21.0426 9.93247H21.0382Z" fill="currentColor"/>
<path d="M19.6357 12.8097C19.6357 13.2651 19.2689 13.6374 18.8201 13.6374C18.4014 13.6374 18.0174 13.2213 18.0303 12.779C18.0389 12.3542 18.4101 12.0082 18.8459 12.017C19.2602 12.0258 19.64 12.4024 19.6357 12.8097Z" fill="currentColor"/>
<path d="M17.7153 9.90617C17.7023 10.3923 17.3485 10.7777 16.9255 10.7426C16.5156 10.7076 16.3386 10.4273 16.3214 10.0463C16.2998 9.5602 16.7098 9.16168 17.1586 9.19233C17.534 9.21861 17.7239 9.46385 17.711 9.90179L17.7153 9.90617Z" fill="currentColor"/>
</svg>
