<svg fill="none" height="100" viewBox="0 0 100 100" width="100" xmlns="http://www.w3.org/2000/svg"><circle cx="50" cy="50" fill="#e8f7f0" r="50"/><path d="m50.0162 25.6144c-.4842 0-.9725.1099-1.4241.3215l-17.5375 8.789c-1.0538.5493-1.7171 1.6032-1.7171 2.8158 0 14.0991 4.8828 23.1242 8.9844 28.2389 4.4515 5.5095 9.6476 8.4391 11.7187 8.4391 2.0305 0 7.1859-3.007 11.6781-8.6344 4.1016-5.1554 8.9844-14.1764 8.9844-28.007 0-1.2085-.6633-2.3031-1.7171-2.8524l-17.5782-8.789c-.4313-.2116-.9114-.3215-1.3916-.3215zm-.0162 2.356c.118 0 .236.0366.3499.0773l17.5781 8.789c.2767.118.4313.4273.4313.7406 0 13.1632-4.6102 21.6797-8.4391 26.5259-4.5695 5.7007-9.139 7.7718-9.9202 7.7718-.7813 0-5.3508-1.9938-9.8837-7.5765-3.8655-4.8055-8.4757-13.3219-8.435-26.7578 0-.3133.1546-.586.4272-.704l17.5415-8.789c.114-.0407.232-.0773.35-.0773zm8.789 14.803c-.2929 0-.5859.118-.8219.35l-9.9203 9.9243-3.8655-3.8697c-.472-.4679-1.2126-.4679-1.6439 0-.4679.4721-.4679 1.2126 0 1.6439l4.6875 4.6875c.236.232.5493.35.8219.35.2727 0 .586-.118.822-.35l10.7422-10.7422c.4679-.472.4679-1.2125 0-1.6438-.236-.232-.529-.35-.822-.35z" fill="#096349"/></svg>