<svg width="100" height="100" viewBox="0 0 100 100" fill="none" xmlns="http://www.w3.org/2000/svg">
<circle cx="50" cy="50" r="50" fill="#E8F7F0"/>
<path d="M49.9578 21.2C49.7038 21.2091 49.4592 21.2985 49.2594 21.4555L25.3062 40.2031L21.6594 43.0555C21.5353 43.1527 21.4316 43.2735 21.3541 43.4108C21.2767 43.5481 21.2271 43.6994 21.2082 43.8559C21.1892 44.0124 21.2013 44.1711 21.2437 44.3229C21.286 44.4748 21.3579 44.6168 21.4552 44.7408C21.5525 44.8649 21.6732 44.9686 21.8106 45.0459C21.9479 45.1233 22.0992 45.1729 22.2557 45.1918C22.4122 45.2107 22.5709 45.1986 22.7228 45.1562C22.8746 45.1138 23.0166 45.0418 23.1406 44.9445L24.8 43.6461V75.2C24.8 75.5182 24.9265 75.8235 25.1515 76.0485C25.3765 76.2735 25.6817 76.4 26 76.4H74C74.3182 76.4 74.6234 76.2735 74.8485 76.0485C75.0735 75.8235 75.1999 75.5182 75.2 75.2V43.6461L76.8594 44.9445C76.9834 45.0418 77.1254 45.1137 77.2772 45.1562C77.429 45.1986 77.5877 45.2107 77.7442 45.1918C77.9007 45.1728 78.052 45.1233 78.1893 45.0459C78.3267 44.9685 78.4474 44.8648 78.5447 44.7408C78.642 44.6167 78.7139 44.4747 78.7563 44.3229C78.7986 44.1711 78.8107 44.0124 78.7918 43.8558C78.7728 43.6993 78.7232 43.5481 78.6458 43.4108C78.5684 43.2735 78.4647 43.1527 78.3406 43.0555L74.7594 40.2547L50.7406 21.4555C50.518 21.2807 50.2407 21.1902 49.9578 21.2ZM50 23.9234L72.8 41.7664V74H27.2V41.7664L50 23.9234ZM34.4 40.4C33.7733 40.4 33.1344 40.6296 32.682 41.082C32.2296 41.5345 32 42.1733 32 42.8V51.2C32 51.8267 32.2296 52.4655 32.682 52.918C33.1344 53.3704 33.7733 53.6 34.4 53.6H65.6C66.2266 53.6 66.8655 53.3704 67.3179 52.918C67.7704 52.4655 68 51.8267 68 51.2V42.8C68 42.1733 67.7704 41.5345 67.3179 41.082C66.8655 40.6296 66.2266 40.4 65.6 40.4H34.4ZM34.4 42.8H65.6V51.2H34.4V42.8ZM39.8 45.2C38.81 45.2 38 46.01 38 47C38 47.99 38.81 48.8 39.8 48.8C40.79 48.8 41.6 47.99 41.6 47C41.6 46.01 40.79 45.2 39.8 45.2ZM34.4 57.2C33.7733 57.2 33.1344 57.4296 32.682 57.882C32.2296 58.3345 32 58.9733 32 59.6V68C32 68.6267 32.2296 69.2655 32.682 69.718C33.1344 70.1704 33.7733 70.4 34.4 70.4H65.6C66.2266 70.4 66.8655 70.1704 67.3179 69.718C67.7704 69.2655 68 68.6267 68 68V59.6C68 58.9733 67.7704 58.3345 67.3179 57.882C66.8655 57.4296 66.2266 57.2 65.6 57.2H34.4ZM34.4 59.6H65.6V68H34.4V59.6ZM39.8 62C38.81 62 38 62.81 38 63.8C38 64.79 38.81 65.6 39.8 65.6C40.79 65.6 41.6 64.79 41.6 63.8C41.6 62.81 40.79 62 39.8 62Z" fill="#096349"/>
</svg>
