<svg fill="none" height="100" viewBox="0 0 100 100" width="100" xmlns="http://www.w3.org/2000/svg"><circle cx="50" cy="50" fill="#e8f7f0" r="50"/><g fill="#096349"><path d="m71.0671 74.2095c.6878-.1279 1.1606-.7674 1.0746-1.4495-.1289-.682-.7737-1.151-1.4614-1.0657-14.3133 2.3447-28.8415 2.302-43.1547-.1279-.6878-.1279-1.3755.341-1.5044 1.0658-.129.682.3438 1.3641 1.0745 1.492 7.4361 1.2363 14.8721 1.8758 22.3511 1.8758 7.2211-.0426 14.4422-.6395 21.6203-1.7905zm-3.7825-33.2095h-34.5581c-.3869 0-.7307.1705-.9886.4689-.2579.2985-.3439.6821-.3009 1.0232l3.7395 22.5091c.4298 2.5152 2.493 4.4336 5.072 4.6042 3.1807.2557 6.4474.341 9.6281.341 3.2667 0 6.5334-.1279 9.7571-.3837 2.579-.2131 4.6421-2.0889 5.072-4.6041l.7307-4.391h1.6763c.8597 0 1.7193-.1279 2.579-.341 4.2983-1.1511 7.3071-5.0305 7.3071-9.4641.0859-5.3289-4.2983-9.7199-9.7142-9.7625zm-5.0719 23.5749c-.2149 1.3642-1.3325 2.3873-2.7079 2.4726-6.2755.4689-12.7229.4689-18.9984 0-1.3755-.0853-2.493-1.1084-2.7079-2.4726l-3.5246-21.017h31.4634zm6.8772-6.7783c-.6017.1705-1.2465.2558-1.8912.2558h-1.2465l2.407-14.4093c3.4816.5542 6.1466 3.5384 6.1466 7.162 0 3.2826-2.2352 6.1389-5.4159 6.9915z"/><path d="m45.909 23c-1.0022 0-1.9993.3898-2.7572 1.1705-1.5157 1.5612-1.5556 4.0434 0 5.5646l5.8237 5.8446c.5584.5604 1.4757.5604 2.0341 0l5.8237-5.8446c1.5556-1.5612 1.5556-4.0434 0-5.5646-1.5557-1.5213-4.0687-1.5613-5.5845 0l-1.2761 1.2815-1.2762-1.2815c-.7778-.7807-1.7853-1.1705-2.7875-1.1705z"/></g></svg>