<svg fill="none" height="100" viewBox="0 0 100 100" width="100" xmlns="http://www.w3.org/2000/svg"><circle cx="50" cy="50" fill="#e8f7f0" r="50"/><path d="m31.25 28.4375c-3.374 0-6.0938 2.7197-6.0938 6.0937v26.25c0 .7959.6104 1.4063 1.4063 1.4063s1.4063-.6104 1.4063-1.4063v-26.25c0-1.8261 1.455-3.2812 3.2812-3.2812h37.5c1.8262 0 3.2812 1.4551 3.2812 3.2812v26.25c0 .7959.6104 1.4063 1.4063 1.4063s1.4063-.6104 1.4063-1.4063v-26.25c0-3.374-2.7198-6.0937-6.0938-6.0937zm22.5 8.2715c-.5518.0293-1.0547.3515-1.2646.918l-7.7344 20.8105c-.2344.752.0928 1.5479.8447 1.8262.1367.0488.2344.0976.3711.0976.6103.0928 1.2207-.2832 1.4551-.8935l7.7832-20.7666c.2783-.7471-.0977-1.543-.8936-1.919-.1855-.0586-.376-.083-.5615-.0732zm-12.168 5.293c-.3613-.0196-.7226.0976-1.0058.3564l-5.669 5.2051c-.2832.2344-.4687.6543-.4687 1.0303 0 .3759.1855.7519.4687 1.0302l5.669 5.1563c.2832.2832.6103.3759.9375.3759.3759 0 .7519-.1416 1.0351-.4687.5127-.5615.4688-1.4551-.0976-1.9678l-4.4971-4.1259 4.4971-4.17c.5664-.5175.6103-1.4062.0976-1.9726-.2588-.2783-.6103-.4297-.9668-.4492zm16.836.0927c-.3565.0196-.708.1709-.9668.4541-.5127.5616-.4688 1.4502.0976 1.9678l4.4971 4.126-4.4971 4.1211c-.5664.5175-.6103 1.4062-.0976 1.9726.2832.3272.6592.4688 1.0351.4688.3272 0 .6543-.1416.9375-.376l5.669-5.2051c.2832-.2344.4687-.5615.4687-.9375s-.1855-.747-.4687-1.0303l-5.669-5.205c-.2832-.2539-.6445-.3711-1.0058-.3565zm-36.543 23.8428c-.7959 0-1.4062.6104-1.4062 1.4063v1.4062c0 3.374 2.7197 6.0938 6.0937 6.0938h46.875c3.374 0 6.0937-2.7198 6.0937-6.0938v-1.4062c0-.7959-.6103-1.4063-1.4062-1.4063zm1.4062 2.8125h53.4376c0 1.8262-1.4551 3.2812-3.2813 3.2812h-46.875c-1.8262 0-3.2813-1.455-3.2813-3.2812z" fill="#096349"/></svg>