<svg fill="none" height="128" viewBox="0 0 128 128" width="128" xmlns="http://www.w3.org/2000/svg" xmlns:xlink="http://www.w3.org/1999/xlink"><linearGradient id="a"><stop offset="0" stop-color="#098049"/><stop offset="1" stop-color="#096349"/></linearGradient><linearGradient id="b" gradientUnits="userSpaceOnUse" x1="32" x2="95.5" xlink:href="#a" y1="18" y2="114.5"/><linearGradient id="c" gradientUnits="userSpaceOnUse" x1="58" x2="85" xlink:href="#a" y1="39" y2="67"/><clipPath id="d"><path d="m6 0h116.832v128h-116.832z"/></clipPath><g clip-path="url(#d)"><path d="m44.2826 120.994h-3.1494c-16.0648 0-29.1332-13.075-29.1332-29.148v-55.6863c0-16.0789 13.0741-29.1597 29.1446-29.1597h45.7108c16.0706 0 29.1446 13.0808 29.1446 29.1597v31.8102c0 16.0732-13.074 29.154-29.1446 29.154h-32.518v13.8221c0 5.54-.5061 10.054-6.0491 10.054z" fill="#fff"/><path d="m46.7616 128h-8.032c-18.048 0-32.7296-14.682-32.7296-32.7296v-62.528c0-18.0544 14.688-32.7424 32.7424-32.7424h51.3536c18.054 0 32.742 14.688 32.742 32.7424v35.7184c0 18.048-14.688 32.7362-32.742 32.7362h-32.0384v15.52c0 6.221-5.0624 11.289-11.2896 11.289zm-8.0192-116.16c-11.5264 0-20.896 9.376-20.896 20.896v62.5344c0 11.5196 9.3696 20.8896 20.8832 20.8896h7.4816v-15.52c0-6.2208 5.0624-11.2896 11.2896-11.2896h32.5952c11.526 0 20.896-9.376 20.896-20.896v-35.7184c0-11.5264-9.376-20.896-20.896-20.896z" fill="url(#b)"/><path d="m73.2448 39.2896h-7.4816c-3.0336 0-5.7792 1.2096-7.808 3.1616 2.144 2.0544 3.488 4.9344 3.488 8.1344s-1.344 6.08-3.488 8.1344c2.0288 1.952 4.7744 3.1616 7.808 3.1616h7.4816c6.24 0 11.296-5.056 11.296-11.296s-5.056-11.296-11.296-11.296z" fill="url(#c)"/></g></svg>